<svg xmlns="http://www.w3.org/2000/svg" xmlns:xlink="http://www.w3.org/1999/xlink" width="500" zoomAndPan="magnify" viewBox="0 0 375 218.249992" height="291" preserveAspectRatio="xMidYMid meet" version="1.0"><defs><clipPath id="b3bb8d8dc4"><path d="M 0.640625 0 L 374.355469 0 L 374.355469 217.503906 L 0.640625 217.503906 Z M 0.640625 0 " clip-rule="nonzero"/></clipPath><clipPath id="cd867b8b68"><path d="M 158 41 L 162.285156 41 L 162.285156 59 L 158 59 Z M 158 41 " clip-rule="nonzero"/></clipPath><clipPath id="8a2aeef33a"><path d="M 42.699219 34 L 76 34 L 76 67 L 42.699219 67 Z M 42.699219 34 " clip-rule="nonzero"/></clipPath></defs><g clip-path="url(#b3bb8d8dc4)"><path fill="#ffffff" d="M 0.640625 0 L 374.359375 0 L 374.359375 217.503906 L 0.640625 217.503906 Z M 0.640625 0 " fill-opacity="1" fill-rule="nonzero"/><path fill="#ffffff" d="M 0.640625 0 L 374.359375 0 L 374.359375 217.503906 L 0.640625 217.503906 Z M 0.640625 0 " fill-opacity="1" fill-rule="nonzero"/></g><path fill="#000000" d="M 80.386719 49.792969 C 80.386719 55.148438 83.835938 58.878906 88.613281 58.878906 C 93.390625 58.878906 96.835938 55.148438 96.835938 49.792969 C 96.835938 44.4375 93.390625 40.703125 88.613281 40.703125 C 83.835938 40.703125 80.386719 44.4375 80.386719 49.792969 Z M 93.683594 49.792969 C 93.683594 53.621094 91.59375 56.101562 88.613281 56.101562 C 85.632812 56.101562 83.539062 53.621094 83.539062 49.792969 C 83.539062 45.960938 85.632812 43.480469 88.613281 43.480469 C 91.59375 43.480469 93.683594 45.960938 93.683594 49.792969 Z M 93.683594 49.792969 " fill-opacity="1" fill-rule="nonzero"/><path fill="#000000" d="M 105.710938 58.878906 C 109.332031 58.878906 111.398438 55.835938 111.398438 52.175781 C 111.398438 48.515625 109.328125 45.46875 105.710938 45.46875 C 104.039062 45.46875 102.804688 46.132812 101.992188 47.089844 L 101.992188 45.714844 L 99.039062 45.714844 L 99.039062 63.03125 L 101.992188 63.03125 L 101.992188 57.257812 C 102.804688 58.214844 104.035156 58.878906 105.710938 58.878906 Z M 101.917969 51.808594 C 101.917969 49.375 103.296875 48.046875 105.117188 48.046875 C 107.261719 48.046875 108.417969 49.71875 108.417969 52.175781 C 108.417969 54.632812 107.261719 56.300781 105.117188 56.300781 C 103.292969 56.300781 101.917969 54.953125 101.917969 52.570312 Z M 101.917969 51.808594 " fill-opacity="1" fill-rule="nonzero"/><path fill="#000000" d="M 119.394531 58.878906 C 121.980469 58.878906 124.027344 57.53125 124.933594 55.269531 L 122.398438 54.308594 C 122.003906 55.636719 120.847656 56.375 119.394531 56.375 C 117.5 56.375 116.167969 55.023438 115.949219 52.8125 L 125.007812 52.8125 L 125.007812 51.828125 C 125.007812 48.292969 123.015625 45.46875 119.269531 45.46875 C 115.527344 45.46875 113.113281 48.394531 113.113281 52.175781 C 113.113281 56.15625 115.699219 58.878906 119.390625 58.878906 Z M 119.246094 47.949219 C 121.121094 47.949219 122.007812 49.179688 122.027344 50.605469 L 116.09375 50.605469 C 116.539062 48.859375 117.71875 47.949219 119.246094 47.949219 Z M 119.246094 47.949219 " fill-opacity="1" fill-rule="nonzero"/><path fill="#000000" d="M 127.226562 58.609375 L 130.179688 58.609375 L 130.179688 51.042969 C 130.179688 49.203125 131.53125 48.222656 132.863281 48.222656 C 134.488281 48.222656 135.125 49.375 135.125 50.972656 L 135.125 58.609375 L 138.082031 58.609375 L 138.082031 50.113281 C 138.082031 47.339844 136.457031 45.46875 133.746094 45.46875 C 132.074219 45.46875 130.917969 46.234375 130.175781 47.089844 L 130.175781 45.714844 L 127.222656 45.714844 L 127.222656 58.609375 Z M 127.226562 58.609375 " fill-opacity="1" fill-rule="nonzero"/><path fill="#000000" d="M 146.738281 40.976562 L 140.042969 58.609375 L 143.171875 58.609375 L 144.671875 54.582031 L 152.308594 54.582031 L 153.832031 58.609375 L 157.007812 58.609375 L 150.3125 40.976562 Z M 148.460938 44.464844 L 151.269531 51.828125 L 145.703125 51.828125 Z M 148.460938 44.464844 " fill-opacity="1" fill-rule="nonzero"/><g clip-path="url(#cd867b8b68)"><path fill="#000000" d="M 162.078125 41.027344 L 158.929688 41.027344 L 158.929688 58.660156 L 162.078125 58.660156 Z M 162.078125 41.027344 " fill-opacity="1" fill-rule="nonzero"/></g><g clip-path="url(#8a2aeef33a)"><path fill="#000000" d="M 73.167969 47.453125 C 73.910156 45.222656 73.652344 42.78125 72.460938 40.75 C 70.671875 37.640625 67.070312 36.039062 63.554688 36.792969 C 61.988281 35.035156 59.742188 34.039062 57.386719 34.050781 C 53.789062 34.042969 50.601562 36.351562 49.496094 39.765625 C 47.1875 40.234375 45.195312 41.675781 44.023438 43.722656 C 42.21875 46.824219 42.632812 50.734375 45.042969 53.394531 C 44.300781 55.625 44.554688 58.070312 45.746094 60.097656 C 47.539062 63.207031 51.140625 64.808594 54.65625 64.054688 C 56.21875 65.8125 58.46875 66.8125 60.824219 66.796875 C 64.421875 66.804688 67.613281 64.496094 68.71875 61.082031 C 71.027344 60.609375 73.019531 59.167969 74.1875 57.125 C 75.992188 54.023438 75.578125 50.113281 73.167969 47.453125 Z M 60.828125 64.65625 C 59.386719 64.65625 57.996094 64.15625 56.890625 63.234375 C 56.9375 63.207031 57.027344 63.160156 57.082031 63.125 L 63.621094 59.359375 C 63.953125 59.167969 64.160156 58.8125 64.15625 58.429688 L 64.15625 49.238281 L 66.921875 50.828125 C 66.949219 50.84375 66.96875 50.871094 66.972656 50.902344 L 66.972656 58.515625 C 66.96875 61.898438 64.21875 64.644531 60.828125 64.652344 Z M 47.613281 59.023438 C 46.890625 57.78125 46.628906 56.324219 46.878906 54.910156 C 46.925781 54.941406 47.011719 54.992188 47.070312 55.027344 L 53.609375 58.792969 C 53.941406 58.988281 54.351562 58.988281 54.683594 58.792969 L 62.664062 54.199219 L 62.664062 57.378906 C 62.664062 57.414062 62.648438 57.445312 62.621094 57.46875 L 56.015625 61.273438 C 53.074219 62.964844 49.3125 61.960938 47.613281 59.027344 Z M 45.890625 44.792969 C 46.605469 43.546875 47.742188 42.59375 49.089844 42.101562 C 49.089844 42.160156 49.089844 42.257812 49.089844 42.324219 L 49.089844 49.859375 C 49.089844 50.242188 49.289062 50.59375 49.625 50.785156 L 57.605469 55.382812 L 54.839844 56.972656 C 54.8125 56.988281 54.777344 56.992188 54.75 56.980469 L 48.140625 53.171875 C 45.203125 51.472656 44.195312 47.726562 45.886719 44.792969 Z M 68.589844 50.058594 L 60.609375 45.464844 L 63.371094 43.875 C 63.402344 43.855469 63.433594 43.851562 63.464844 43.863281 L 70.074219 47.671875 C 73.015625 49.367188 74.023438 53.121094 72.324219 56.058594 C 71.605469 57.300781 70.472656 58.25 69.125 58.746094 L 69.125 50.988281 C 69.128906 50.605469 68.921875 50.253906 68.589844 50.0625 Z M 71.335938 45.929688 C 71.289062 45.902344 71.203125 45.851562 71.144531 45.816406 L 64.605469 42.050781 C 64.273438 41.855469 63.867188 41.855469 63.535156 42.050781 L 55.554688 46.644531 L 55.554688 43.460938 C 55.554688 43.429688 55.566406 43.398438 55.59375 43.375 L 62.199219 39.574219 C 65.144531 37.878906 68.90625 38.890625 70.605469 41.824219 C 71.324219 43.066406 71.582031 44.519531 71.335938 45.929688 Z M 54.050781 51.605469 L 51.285156 50.015625 C 51.257812 50 51.238281 49.972656 51.234375 49.9375 L 51.234375 42.328125 C 51.234375 38.9375 53.992188 36.191406 57.390625 36.191406 C 58.828125 36.191406 60.21875 36.695312 61.324219 37.613281 C 61.273438 37.640625 61.1875 37.6875 61.128906 37.722656 L 54.59375 41.492188 C 54.257812 41.679688 54.054688 42.035156 54.054688 42.417969 L 54.054688 51.605469 Z M 55.550781 48.375 L 59.105469 46.328125 L 62.660156 48.375 L 62.660156 52.46875 L 59.105469 54.515625 L 55.550781 52.46875 Z M 55.550781 48.375 " fill-opacity="1" fill-rule="nonzero"/></g></svg>