<?xml version="1.0" encoding="UTF-8"?>
<svg xmlns="http://www.w3.org/2000/svg" id="Layer_1" data-name="Layer 1" width="500" height="200" viewBox="0 0 500 200">
  <defs>
    <style>
      .cls-1 {
        fill: #1e74b2;
      }

      .cls-1, .cls-2 {
        fill-rule: evenodd;
      }

      .cls-3, .cls-2 {
        fill: #0a1c38;
      }
    </style>
  </defs>
  <path class="cls-1" d="M56.47,121.09h-15.02c-.92,0-1.83-.57-2.38-1.53l-6.96-12.96c-.36-.95-.36-1.9,0-2.67l6.96-12.96c.55-.95,1.47-1.53,2.38-1.53h8.61c.92,0,1.83-.57,2.38-1.53l6.23-11.63c.55-.95-.18-2.09-1.1-2.09h-23.08c-2.01,0-3.66,1.14-4.76,2.86l-13.74,25.54c-.92,1.73-.92,3.8,0,5.52l13.74,25.35c.94,1.75,2.77,2.85,4.76,2.86h29.49c1.1,0,1.65-1.14,1.1-2.09l-6.41-11.82c-.18-.95-1.1-1.34-2.2-1.34h0Z"></path>
  <path class="cls-3" d="M97.12,85.46l-5.86-10.29c-.55-.95-1.83-.95-2.38,0l-24.73,45.74c-.36.95-.36,1.9,0,2.67l6.41,12.01c.55.95,1.83.95,2.38,0l24.17-44.6c.92-1.73.92-3.8,0-5.52h0Z"></path>
  <path class="cls-2" d="M67.27,106.42l7.33-13.53c.36-.76.36-1.9,0-2.86l-8.42-15.06c-.55-.95-1.83-.95-2.38,0l-7.14,13.15c-.36.76-.36,1.9,0,2.67l8.24,15.44c.55,1.14,2.01,1.14,2.38.19h0Z"></path>
  <path class="cls-3" d="M118.74,85.46l-5.86-10.29c-.55-.95-1.83-.95-2.38,0l-24.73,45.74c-.36.95-.36,1.9,0,2.67l6.59,12.01c.55.95,1.83.95,2.38,0l24.17-44.6c.92-1.72.92-3.81-.18-5.52h0ZM325.37,82.86h3.48c.92,0,1.47.76,1.28,1.72l-9.52,44.79c-.18.95-.92,1.53-1.83,1.53h-4.58c-.92,0-1.65-.57-1.83-1.53l-8.24-32.97c-.18-.95-1.65-.95-1.83,0l-8.42,32.97c-.18.95-.92,1.53-1.83,1.53h-4.58c-.92,0-1.65-.57-1.83-1.53l-9.52-44.79c-.18-.76.36-1.72,1.28-1.72h3.84c.92,0,1.65.76,1.83,1.72l6.23,32.21c.18,1.14,1.65,1.14,1.83,0l8.42-32.4c.18-.95.92-1.53,1.83-1.53h3.48c.92,0,1.65.57,1.83,1.53l8.42,32.4c.18.95,1.65.95,1.83,0l6.23-32.21c.55-1.14,1.28-1.72,2.2-1.72h0ZM151.02,109.17c0,3.24.18,5.72.55,7.81.36,1.9.92,3.62,1.83,4.77.92,1.14,2.2,1.9,3.66,2.29,1.65.38,3.66.57,6.05.57,1.28,0,6.59,0,9.16-.19.73,0,1.47.57,1.83,1.34l1.1,3.24c.36.95-.36,1.72-1.28,1.72-3.3,0-10.26.19-10.99.19-3.66,0-6.77-.38-9.34-1.14-2.38-.76-4.4-2.09-5.86-3.81s-2.57-4-3.11-6.67c-.55-2.67-.92-6.1-.92-10.1v-4.96c0-4.19.36-7.62,1.1-10.29s1.83-4.96,3.3-6.67,3.48-2.86,5.86-3.62c2.38-.76,5.49-1.14,8.98-1.14,1.1,0,7.69,0,10.99.19.92,0,1.47.95,1.28,1.9l-1.1,3.24c-.36.76-1.1,1.34-1.83,1.34-2.75,0-8.79-.19-9.34-.19-2.57,0-4.58.19-6.05.57-1.65.38-2.75,1.14-3.66,2.09-.92,1.14-1.47,2.67-1.83,4.57s-.36,4.57-.36,7.81v5.15h-.01ZM194.97,94.87c2.75,0,5.13.19,7.14.76s3.66,1.34,4.76,2.67c1.28,1.34,2.2,3.05,2.75,5.15.55,2.09.92,4.77.92,8v3.62c0,3.24-.36,5.91-.92,8-.55,2.09-1.47,3.81-2.75,5.15-1.28,1.34-2.93,2.09-4.76,2.67-2.01.57-4.4.76-7.14.76s-5.13-.19-7.14-.76-3.66-1.34-4.76-2.67c-1.28-1.34-2.2-3.05-2.75-5.15-.55-2.09-.92-4.77-.92-8v-3.62c0-3.24.36-5.91.92-8,.55-2.09,1.47-3.81,2.75-5.15,1.28-1.34,2.93-2.09,4.76-2.67,2.01-.57,4.4-.76,7.14-.76ZM203.77,111.45c0-2.29-.18-4.19-.36-5.72-.18-1.34-.73-2.48-1.28-3.24-.55-.76-1.47-1.34-2.57-1.53s-2.57-.38-4.4-.38-3.3.19-4.4.38-2.01.76-2.57,1.53c-.55.76-1.1,1.9-1.28,3.24s-.36,3.24-.36,5.72v3.62c0,2.29.18,4.19.36,5.72.18,1.34.73,2.48,1.28,3.24.55.76,1.46,1.34,2.57,1.53s2.57.38,4.4.38,3.3-.19,4.4-.38c1.1-.19,2.01-.76,2.57-1.53.55-.76,1.1-1.9,1.28-3.24s.36-3.24.36-5.72v-3.62ZM218.6,130.7c-.73,0-1.28-.57-1.28-1.34v-22.49c0-2.09.36-3.81.92-5.15.55-1.34,1.47-2.48,2.57-3.43s2.38-1.53,4.03-1.9c1.47-.38,3.3-.57,5.13-.57h6.77c.92,0,1.47.95,1.28,1.9l-1.1,2.67c-.36.76-1.1,1.34-1.83,1.34h-4.4c-1.47,0-2.75.19-3.48.38-.92.19-1.47.76-2.01,1.34-.36.57-.73,1.34-.73,2.09-.18.76-.18,1.72-.18,2.86v20.96c0,.76-.55,1.34-1.28,1.34h-4.4ZM248.27,116.03c-.73,0-1.28.57-1.28,1.34,0,1.34.18,2.29.18,3.24.18,1.14.55,2.09,1.1,2.67.55.76,1.47,1.14,2.38,1.34,1.1.19,2.38.38,4.21.38.92,0,8.06,0,11.17-.19.73,0,1.65.57,1.83,1.34l.92,2.67c.36.95-.36,1.72-1.28,1.9-3.66,0-11.91.19-12.64.19-3.11,0-5.49-.38-7.51-1.14s-3.48-1.72-4.58-3.24c-1.1-1.34-1.83-3.05-2.2-4.96s-.55-4.19-.55-6.48v-3.81c0-2.48.18-4.77.55-6.86.36-2.09,1.1-3.81,2.2-5.15,1.1-1.34,2.57-2.48,4.58-3.24s4.58-1.14,7.69-1.14c2.93,0,5.31.38,7.14.95,1.83.76,3.3,1.72,4.4,2.86,1.1,1.14,1.83,2.48,2.2,4.19.36,1.53.55,3.24.55,4.77v1.14c0,1.53-.18,2.86-.18,3.81-.18.95-.36,1.72-.92,2.09-.36.57-.92.95-1.47.95-.55.19-1.28.19-2.2.19l-16.3.19h0ZM255.05,100.4c-1.65,0-3.11.19-4.22.38-1.1.19-1.83.76-2.38,1.53-.55.76-.92,1.72-1.1,3.05-.18.95-.18,2.29-.18,3.62,0,.76.55,1.34,1.28,1.34h13.56c.73,0,1.28-.57,1.28-1.34v-.95c0-1.53-.18-2.67-.36-3.81-.18-.95-.73-1.72-1.28-2.29-.55-.57-1.46-.95-2.57-1.14-1.1-.19-2.38-.38-4.03-.38h0ZM340.94,116.03c-.73,0-1.28.57-1.28,1.34,0,1.34.18,2.29.36,3.24.18,1.14.55,2.09,1.1,2.67.55.76,1.47,1.14,2.38,1.34,1.1.19,2.38.38,4.21.38.92,0,8.06,0,11.17-.19.73,0,1.47.57,1.83,1.34l.92,2.67c.36.95-.36,1.72-1.28,1.9-3.66,0-11.91.19-12.64.19-3.11,0-5.49-.38-7.51-1.14-1.83-.76-3.48-1.72-4.58-3.24-1.1-1.34-1.83-3.05-2.2-4.96s-.55-4.19-.55-6.48v-3.81c0-2.48.18-4.77.55-6.86.36-2.09,1.1-3.81,2.2-5.15,1.1-1.34,2.57-2.48,4.58-3.24s4.58-1.14,7.69-1.14c2.93,0,5.31.38,7.14.95,1.83.76,3.3,1.72,4.4,2.86,1.1,1.14,1.83,2.48,2.2,4.19.36,1.72.55,3.24.55,4.77v1.14c0,1.53,0,2.86-.18,3.81s-.36,1.72-.92,2.09c-.36.57-.92.95-1.47.95-.55.19-1.28.19-2.01.19l-16.67.19h0ZM347.53,100.4c-1.65,0-3.11.19-4.22.38-1.1.19-1.83.76-2.38,1.53-.55.76-.92,1.72-1.1,3.05-.18.95-.18,2.29-.36,3.62,0,.76.55,1.34,1.28,1.34h13.56c.73,0,1.28-.57,1.28-1.34v-.95c0-1.53-.18-2.67-.36-3.81-.18-.95-.73-1.72-1.28-2.29-.55-.57-1.47-.95-2.57-1.14-.92-.19-2.2-.38-3.84-.38h0ZM443.13,116.03c-.73,0-1.28.57-1.28,1.34,0,1.34.18,2.29.18,3.24.18,1.14.55,2.09,1.1,2.67.55.76,1.47,1.14,2.38,1.34,1.1.19,2.38.38,4.21.38.92,0,8.06,0,11.17-.19.73,0,1.65.57,1.83,1.34l.92,2.67c.36.95-.36,1.72-1.28,1.9-3.66,0-11.91.19-12.64.19-3.11,0-5.49-.38-7.51-1.14s-3.48-1.72-4.58-3.24c-1.1-1.34-1.83-3.05-2.2-4.96s-.55-4.19-.55-6.48v-3.81c0-2.48.18-4.77.55-6.86.36-2.09,1.1-3.81,2.2-5.15,1.1-1.34,2.57-2.48,4.58-3.24,2.01-.76,4.58-1.14,7.69-1.14,2.93,0,5.31.38,7.14.95,1.83.76,3.3,1.72,4.4,2.86,1.1,1.14,1.83,2.48,2.2,4.19.36,1.53.55,3.24.55,4.77v1.14c0,1.53-.18,2.86-.18,3.81-.18.95-.36,1.72-.92,2.09-.36.57-.92.95-1.47.95-.55.19-1.28.19-2.2.19l-16.3.19h0ZM449.91,100.4c-1.65,0-3.11.19-4.22.38-1.1.19-1.83.76-2.38,1.53-.55.76-.92,1.72-1.1,3.05-.18.95-.18,2.29-.18,3.62,0,.76.55,1.34,1.28,1.34h13.56c.73,0,1.28-.57,1.28-1.34v-.95c0-1.53-.18-2.67-.36-3.81-.18-.95-.73-1.72-1.28-2.29-.55-.57-1.47-.95-2.57-1.14-1.28-.19-2.57-.38-4.03-.38h0ZM396.43,124.98c0,2.09-.55,3.62-1.47,4.57s-2.75,1.34-5.12,1.34h-9.7c-4.58,0-7.69-.95-9.71-2.67-2.01-1.72-2.93-4.38-2.93-7.81v-1.53c0-3.81,1.1-6.48,3.3-8,2.2-1.53,5.49-2.48,10.07-2.48,2.57,0,4.58.19,6.05.57.73.19,1.47.38,1.83.76.55.19,1.28-.19,1.28-.95v-.38c0-1.14,0-2.09-.18-2.86s-.55-1.53-1.1-2.09c-.55-.57-1.47-.95-2.57-1.34-1.1-.19-2.57-.38-4.58-.38-1.46,0-7.87,0-10.81.19-.73,0-1.47-.57-1.83-1.34l-.92-2.67c-.36-.95.36-1.72,1.1-1.72,3.48,0,10.99-.19,12.27-.19,5.31,0,8.98.95,11.35,2.86,2.38,1.9,3.48,4.77,3.48,8.39l.18,17.73h0ZM373.72,120.41c0,1.53.36,2.67,1.28,3.62.92.76,2.57,1.14,4.94,1.14h8.61c.73,0,1.28-.57,1.28-1.34v-4.77c0-.76-.18-1.53-.18-2.29-.18-.57-.55-1.14-1.1-1.53-.55-.38-1.28-.76-2.2-.76-.92-.19-2.38-.19-4.03-.19h-1.47c-1.46,0-2.57,0-3.48.19-.92.19-1.65.38-2.2.76-.55.38-.92.95-1.1,1.53s-.36,1.34-.36,2.29v1.34h0ZM407.05,97.35l7.69,23.06c.36.95,1.46.95,1.83,0l8.06-23.06c.18-.76,1.1-1.34,1.83-1.34h3.84c.92,0,1.47.95,1.28,1.9l-11.72,31.64c-.36.76-1.1,1.34-1.83,1.34h-4.58c-.73,0-1.47-.57-1.83-1.34l-11.72-31.64c-.36-.95.36-1.9,1.28-1.9h4.21c.73,0,1.47.57,1.65,1.34h.01ZM482.87,98.08c-1.45,0-2.77-.35-3.97-1.04-1.18-.71-2.13-1.66-2.84-2.84-.69-1.2-1.04-2.51-1.04-3.94s.35-2.75,1.04-3.94c.71-1.18,1.66-2.12,2.84-2.81,1.2-.71,2.52-1.07,3.97-1.07,1.08,0,2.09.2,3.02.61,1.89.79,3.39,2.29,4.18,4.18.41.94.61,1.94.61,3.02,0,1.42-.36,2.74-1.07,3.94-.69,1.18-1.63,2.13-2.81,2.84-1.18.69-2.49,1.04-3.94,1.04h0ZM482.87,96.31c1.12,0,2.13-.26,3.02-.79.91-.52,1.66-1.27,2.2-2.17.55-.92.82-1.94.82-3.08s-.28-2.14-.82-3.05c-.53-.9-1.29-1.64-2.2-2.17-.89-.55-1.9-.82-3.02-.82s-2.17.28-3.08.82c-.91.52-1.66,1.27-2.2,2.17-.53.92-.79,1.93-.79,3.05s.26,2.14.79,3.05c.54.9,1.29,1.66,2.2,2.2.92.53,1.94.79,3.08.79ZM479.89,94.36v-8.24h3.33c.86,0,1.56.23,2.11.71.55.45.82,1.1.82,1.96,0,.55-.12,1.02-.36,1.43-.23.39-.57.69-1.04.92l1.93,3.23h-1.98l-1.65-2.9h-1.37v2.9h-1.77ZM481.65,89.87h1.56c.35,0,.62-.1.82-.31.2-.23.31-.49.31-.79s-.1-.56-.31-.76c-.2-.2-.48-.31-.82-.31h-1.56s0,2.17,0,2.17Z"></path>
</svg>
