<?xml version="1.0" encoding="UTF-8"?>
<svg xmlns="http://www.w3.org/2000/svg" id="Layer_1" data-name="Layer 1" width="500" height="200" viewBox="0 0 500 200">
  <defs>
    <style>
      .cls-1 {
        fill: #e51600;
      }

      .cls-2 {
        fill-rule: evenodd;
      }
    </style>
  </defs>
  <path class="cls-1" d="M76.25,118.48v-13.1l-1.42-.89-33.99,18.59-32.22-17.7v-7.61l32.22,17.53,35.58-19.3v-12.92l-1.42-.89-34.17,18.76-30.98-16.99,30.98-16.99,24.96,13.63,1.95-1.06v-1.42l-26.91-14.69L5.27,82.72v1.95l35.58,19.47,32.22-17.7v7.79l-32.22,17.7L6.68,93.17l-1.42.89v13.1l35.58,19.3,32.22-17.53v7.61l-32.22,17.7L6.68,115.65l-1.42.89v1.95l35.58,19.3,35.4-19.3Z"></path>
  <g>
    <path class="cls-2" d="M143.88,67.32v59.66h-9.56v-4.43c0-.35-.18-.71-.53-.71-.35-.18-.71,0-.89.18-3.36,3.72-8.32,6.02-13.81,6.02s-10.98-2.3-14.87-6.2c-3.89-4.07-6.02-9.56-6.02-15.58,0-12.21,9.21-21.77,20.89-21.77,5.49,0,10.62,2.12,13.81,5.66.18.18.53.35.89.18.35-.18.53-.35.53-.71v-22.3h9.56ZM107.76,106.27c0,7.61,5.84,13.45,13.45,13.45s13.45-5.84,13.45-13.45-5.84-13.45-13.45-13.45-13.45,5.84-13.45,13.45Z"></path>
    <path class="cls-2" d="M194.5,85.38v41.6h-9.38v-4.43c0-.35-.18-.71-.53-.71-.35-.18-.71,0-.89.18-3.36,3.89-8.32,6.02-13.81,6.02-11.68,0-20.89-9.56-20.89-21.77s9.21-21.77,20.89-21.77c5.66,0,10.62,1.95,13.81,5.66.18.18.53.35.89.18.35-.18.53-.35.53-.71v-4.25s9.38,0,9.38,0ZM158.57,106.27c0,7.61,5.84,13.45,13.45,13.45s13.45-5.84,13.45-13.45-5.84-13.45-13.45-13.45-13.45,5.84-13.45,13.45Z"></path>
    <path class="cls-2" d="M275.05,85.38v41.6h-9.38v-4.43c0-.35-.18-.71-.53-.71-.35-.18-.71,0-.89.18-3.36,3.89-8.32,6.02-13.81,6.02-11.68,0-20.89-9.56-20.89-21.77s9.21-21.77,20.89-21.77c5.66,0,10.62,1.95,13.81,5.66.18.18.53.35.89.18.35-.18.53-.35.53-.71v-4.25s9.38,0,9.38,0ZM239.11,106.27c0,7.61,5.84,13.45,13.45,13.45s13.45-5.84,13.45-13.45-5.84-13.45-13.45-13.45-13.45,5.84-13.45,13.45Z"></path>
    <path class="cls-2" d="M292.75,122.02h-.35c-.35.18-.53.35-.53.71v4.25h-9.56v-59.66h9.56v22.48c0,.35.18.71.53.71.35.18.71,0,.89-.18,3.36-3.72,8.32-6.02,13.81-6.02s10.98,2.3,14.87,6.2c3.89,4.07,6.02,9.56,6.02,15.58,0,12.21-9.21,21.77-20.89,21.77-5.49,0-10.62-2.12-13.81-5.66-.18,0-.35-.18-.53-.18ZM304.97,92.81c-7.61,0-13.45,5.84-13.45,13.45s5.84,13.45,13.45,13.45,13.45-5.84,13.45-13.45c0-7.61-6.02-13.45-13.45-13.45Z"></path>
    <path d="M355.42,93.87c.89,0,1.77,0,2.3.18v-9.38c-.35,0-.89-.18-1.59-.18-4.96,0-9.56,2.48-11.86,6.37-.18.35-.53.53-.89.35s-.53-.35-.53-.71v-5.13h-9.38v41.6h9.56v-18.23c-.35-9.21,4.6-14.87,12.39-14.87Z"></path>
    <rect x="363.56" y="85.38" width="9.56" height="41.6"></rect>
    <path d="M368.34,67.32c-3.19,0-5.84,2.48-5.84,5.66s2.66,5.66,5.84,5.66,5.84-2.48,5.84-5.66c0-3.01-2.66-5.66-5.84-5.66Z"></path>
    <path d="M401.44,84.49c-13.1,0-22.66,9.21-22.66,21.77,0,6.2,2.3,11.68,6.37,15.58,4.07,3.89,9.91,6.2,16.29,6.2,5.31,0,9.56-1.06,17.35-6.55l-5.31-5.49c-3.89,2.48-7.43,3.72-10.98,3.72-7.97,0-13.98-5.84-13.98-13.45s6.02-13.45,13.98-13.45c3.72,0,7.26,1.24,10.8,3.72l6.02-5.49c-7.26-6.02-13.63-6.55-17.88-6.55Z"></path>
    <path d="M435.25,108.74c.18-.18.35-.18.53-.18h0c.18,0,.35.18.53.35l15.22,18.23h11.68l-19.65-23.01c-.35-.35-.18-.71,0-1.06l18.06-17.53h-11.51l-15.58,15.05c-.18.18-.53.35-.89.18s-.53-.35-.53-.71v-32.75h-9.56v59.66h9.56v-16.11c0-.18.18-.35.18-.53l1.95-1.59Z"></path>
    <path d="M478.98,128.04c7.79,0,15.75-4.6,15.75-13.28,0-5.66-3.72-9.56-11.33-12.04l-5.13-1.59c-3.54-1.06-5.13-2.66-5.13-4.96,0-2.48,2.3-4.25,5.66-4.25,3.19,0,6.02,1.95,7.79,5.49l7.61-3.89c-2.83-5.66-8.67-9.03-15.4-9.03-8.5,0-14.69,5.31-14.69,12.57,0,5.84,3.54,9.74,10.8,11.86l5.31,1.59c3.72,1.06,5.31,2.48,5.31,4.96,0,3.54-3.36,4.78-6.2,4.78-3.89,0-7.26-2.48-9.03-6.37l-7.79,3.89c2.48,6.37,8.85,10.27,16.46,10.27Z"></path>
    <path d="M220.88,127.69c3.01,0,5.66-.18,7.26-.53v-7.97c-1.24.18-3.36.35-4.78.35-3.89,0-6.73-.71-6.73-8.67v-16.99c0-.35.35-.71.89-.71h9.21v-7.43h-9.21c-.53,0-.89-.35-.89-.71v-12.39h-9.38v12.04c0,.35-.35.71-.89.71h-6.55v7.43h6.55c.53,0,.89.35.89.71v19.3c-.18,14.87,9.91,14.87,13.63,14.87Z"></path>
  </g>
</svg>
