<?xml version="1.0" encoding="UTF-8"?>
<svg xmlns="http://www.w3.org/2000/svg" id="Layer_1" data-name="Layer 1" width="500" height="200" viewBox="0 0 500 200">
  <g id="Layer_1-2" data-name="Layer 1">
    <g id="Layer_2" data-name="Layer 2">
      <path d="M266.95,63.17c-19.06,0-34.54,15.45-34.54,34.54s15.45,34.54,34.54,34.54,34.54-15.45,34.54-34.54h0c-.03-19.06-15.49-34.51-34.54-34.54ZM266.95,119.29c-11.91,0-21.57-9.66-21.57-21.57s9.66-21.57,21.57-21.57,21.57,9.66,21.57,21.57h0c0,11.91-9.66,21.57-21.57,21.57h0Z"></path>
      <path d="M219.27,63.31c-1.19-.13-2.35-.2-3.54-.2-.6,0-1.16,0-1.72.03s-1.16.07-1.72.1c-2.32.17-4.63.56-6.88,1.19-4.6,1.22-8.93,3.41-12.67,6.35-3.84,3.04-6.88,6.95-8.97,11.38-1.03,2.22-1.79,4.57-2.28,6.95-.23,1.19-.4,2.38-.53,3.57-.03.6-.1,1.19-.1,1.79l-.03.89v.83l.03,11.58.03,11.55.07,11.55h12.94l.07-11.55.03-11.55.03-11.58v-1.22c0-.36.07-.73.07-1.09.07-.73.2-1.42.33-2.15.3-1.39.73-2.75,1.32-4.04,1.19-2.58,2.98-4.83,5.19-6.62,2.32-1.85,5-3.21,7.84-3.97,1.46-.4,2.98-.66,4.5-.79.4-.03.76-.07,1.16-.07s.79-.03,1.16-.03c.73,0,1.49.03,2.22.1,2.94.3,5.79,1.19,8.4,2.65l6.45-11.22c-4.1-2.38-8.67-3.9-13.4-4.43Z"></path>
      <path d="M136.59,63.01c-19.06-.17-34.68,15.15-34.84,34.21-.17,19.06,15.15,34.68,34.21,34.84h11.98v-12.94h-11.35c-11.91.13-21.71-9.4-21.84-21.34-.13-11.94,9.4-21.71,21.34-21.84h.5c11.91,0,21.57,9.66,21.64,21.57h0v31.8h0c0,11.81-9.63,21.44-21.41,21.57-5.66-.03-11.05-2.32-15.02-6.32l-9.17,9.17c6.35,6.39,14.96,10.03,23.96,10.09h.46c18.83-.26,33.95-15.55,34.05-34.38v-32.79c-.46-18.69-15.78-33.62-34.51-33.65Z"></path>
      <path d="M343.19,63.17c-19.06,0-34.54,15.45-34.51,34.54,0,19.06,15.45,34.51,34.51,34.51h11.81v-12.94h-11.81c-11.91,0-21.57-9.66-21.57-21.57s9.66-21.57,21.57-21.57c11.18,0,20.51,8.57,21.51,19.72h-.03v66.31h12.94v-64.46h0c0-19.06-15.39-34.54-34.41-34.54Z"></path>
    </g>
  </g>
  <g id="Isolation_Mode" data-name="Isolation Mode">
    <path d="M398.26,72.03c0,3.85-3,6.85-6.85,6.85s-6.8-3-6.8-6.8,3-6.85,6.85-6.85,6.8,2.95,6.8,6.8h0ZM397.54,72.03c0-3.45-2.6-6.09-6.09-6.09s-6.13,2.69-6.13,6.09,2.64,6.09,6.09,6.09c3.49.04,6.13-2.69,6.13-6.09h0ZM393.16,73.15l1.83,2.77h-1.03l-1.7-2.6h-2.46v2.64h-1.03v-7.83h3c1.92,0,3.09.98,3.09,2.6.04,1.21-.63,2.06-1.7,2.42h0ZM393.92,70.73c0-1.12-.81-1.75-2.15-1.75h-1.97v3.54h1.97c1.34,0,2.15-.67,2.15-1.79Z"></path>
  </g>
</svg>
