<?xml version="1.0" encoding="UTF-8"?>
<svg xmlns="http://www.w3.org/2000/svg" id="Layer_1" data-name="Layer 1" width="500" height="200" viewBox="0 0 500 200">
  <path d="M174.23,119.01h23.55v11.37h-36.99v-59.89h13.44v48.51ZM43.88,55.68h89.99v89.84H43.88V55.68ZM51.83,137.6h74.05V63.59H51.83v74.01ZM67.64,70.62l15.65,27.75-17.42,32.14h11.22l11.61-21.93,12.36,21.93h11.42l-33.42-59.89h-11.42ZM297.69,85.97c-2.87-.07-5.69.67-8.17,2.13-2.17,1.35-4.05,3.13-5.53,5.22h-.18c-1.84-4.53-6.24-7.37-11.77-7.37-7.38,0-11.16,4.08-13,6.84h-.27l-.61-5.87h-10.89v43.44h13v-25.31c-.04-1.15.14-2.29.52-3.37.79-2.24,2.81-4.89,6.24-4.89,4.22,0,6.15,3.73,6.15,9.24v24.35h13v-25.38c0-1.18.17-2.35.52-3.47.4-1.34,1.21-2.52,2.31-3.37s2.45-1.32,3.83-1.34c4.31,0,6.33,3.64,6.33,9.96v23.63h13v-25.61c0-12.97-6.24-18.84-14.49-18.84ZM398.51,68.8h13.36v61.55h-11.51l-.61-6.4h-.18c-2.72,4.89-7.91,7.37-13.44,7.37-10.19,0-18.36-8.79-18.36-22.3-.09-14.66,8.96-23.1,19.24-23.1,5.27,0,9.4,1.87,11.33,4.89h.18v-22.02ZM398.51,105.3c-.02-.8-.08-1.6-.18-2.4-.79-3.64-3.69-6.66-7.81-6.66-6.07,0-9.22,5.51-9.22,12.35,0,7.37,3.6,11.99,9.14,11.99,1.84.02,3.62-.61,5.04-1.79,1.42-1.18,2.38-2.83,2.72-4.65.26-1.02.38-2.06.36-3.11l-.04-5.72ZM456.12,104.67v25.68h-11.51l-.79-4.35h-.27c-2.82,3.46-7.23,5.33-12.35,5.33-8.73,0-13.93-6.4-13.93-13.33,0-11.28,11.35-14.6,25.3-14.6v-2.6c0-2.31-1.23-5.6-7.84-5.6-3.48.05-6.92.83-10.09,2.31l-4.28-7.72c3-1.69,8.9-3.82,16.75-3.82,14.37,0,19,8.53,19,18.75v-.04ZM443.02,111.39c-7.38,0-13.36.51-13.39,5.97,0,3.49,3.17,4.43,6.16,4.43,1.53.01,3.03-.46,4.28-1.36,1.25-.89,2.19-2.16,2.69-3.62.18-.75.27-1.53.27-2.31v-3.11ZM362.59,107.83c0,15.63-9.71,23.43-19.42,23.43-4.94,0-9.71-1.87-12.74-7.01h-.13l-.52,6.03h-10.85v-61.45h13.17v23.23h.17c2.51-3.73,6.93-6.12,12.83-6.12,10.15,0,17.6,8.61,17.52,21.92l-.03-.04ZM349.14,108.37c0-6.72-2.95-12.08-9.1-12.08-3.56,0-6.85,2.75-7.72,6.66-.17.82-.26,1.65-.26,2.49v6.4c0,.81.08,1.61.26,2.4.38,1.79,1.35,3.4,2.76,4.56,1.4,1.16,3.15,1.81,4.96,1.83,5.67.04,9.13-4.4,9.13-12.21l-.03-.04ZM241.4,104.64v25.68h-11.47l-.79-4.35h-.27c-2.83,3.46-7.23,5.33-12.35,5.33-8.74.04-13.9-6.33-13.9-13.26,0-11.28,11.36-14.6,25.3-14.6v-2.64c0-2.31-1.23-5.6-7.84-5.6-3.48.05-6.92.83-10.08,2.31l-4.29-7.72c3-1.69,8.91-3.82,16.76-3.82,14.34,0,18.97,8.53,18.97,18.75l-.05-.07ZM228.3,111.36c-7.38,0-13.36.51-13.39,5.97,0,3.49,3.17,4.43,6.16,4.43,1.53.01,3.03-.46,4.28-1.35,1.25-.89,2.19-2.16,2.69-3.62.18-.76.27-1.53.27-2.31v-3.11Z"></path>
</svg>
