<?xml version="1.0" encoding="UTF-8"?>
<svg xmlns="http://www.w3.org/2000/svg" id="Layer_1" data-name="Layer 1" width="500" height="200" viewBox="0 0 500 200">
  <path d="M173.78,96.27c0,18.61,11.95,31.58,28.51,31.58s28.51-12.97,28.51-31.58-11.95-31.58-28.51-31.58-28.51,12.97-28.51,31.58ZM219.87,96.27c0,13.31-7.25,21.93-17.58,21.93s-17.58-8.62-17.58-21.93,7.25-21.93,17.58-21.93,17.58,8.62,17.58,21.93Z"></path>
  <path d="M261.56,127.85c12.55,0,19.71-10.58,19.71-23.3s-7.17-23.3-19.71-23.3c-5.8,0-10.07,2.3-12.89,5.63v-4.78h-10.24v60.17h10.24v-20.06c2.82,3.33,7.08,5.63,12.89,5.63h0ZM248.41,103.27c0-8.45,4.78-13.06,11.09-13.06,7.43,0,11.44,5.8,11.44,14.34s-4.01,14.34-11.44,14.34c-6.32,0-11.09-4.69-11.09-12.97v-2.65Z"></path>
  <path d="M308.99,127.85c8.96,0,16.05-4.69,19.2-12.55l-8.79-3.33c-1.37,4.61-5.38,7.17-10.41,7.17-6.57,0-11.18-4.69-11.95-12.38h31.41v-3.41c0-12.29-6.91-22.1-19.89-22.1s-21.34,10.16-21.34,23.3c0,13.83,8.96,23.3,21.76,23.3h0ZM308.48,89.87c6.49,0,9.56,4.27,9.64,9.22h-20.57c1.54-6.06,5.63-9.22,10.92-9.22h0Z"></path>
  <path d="M336.13,126.91h10.24v-26.29c0-6.4,4.69-9.81,9.3-9.81,5.63,0,7.85,4.01,7.85,9.56v26.54h10.24v-29.53c0-9.64-5.63-16.13-15.02-16.13-5.8,0-9.81,2.65-12.38,5.63v-4.78h-10.24v44.81Z"></path>
  <path d="M403.77,65.63l-23.21,61.28h10.84l5.21-14h26.46l5.29,14h11.01l-23.21-61.28h-12.38ZM409.74,77.75l9.73,25.6h-19.29l9.56-25.6Z"></path>
  <path d="M456.94,65.81h-10.92v61.28h10.92v-61.28Z"></path>
  <path d="M148.75,88.14c2.58-7.75,1.69-16.24-2.44-23.29-6.21-10.81-18.69-16.37-30.88-13.75-5.42-6.11-13.21-9.58-21.38-9.53-12.46-.03-23.52,7.99-27.35,19.85-8,1.64-14.91,6.65-18.96,13.75-6.26,10.78-4.83,24.37,3.53,33.62-2.58,7.75-1.69,16.24,2.44,23.29,6.21,10.81,18.69,16.37,30.88,13.75,5.42,6.11,13.21,9.58,21.38,9.53,12.47.03,23.53-8,27.36-19.86,8-1.64,14.91-6.65,18.96-13.75,6.25-10.78,4.82-24.36-3.53-33.61h0ZM105.98,147.92c-4.99,0-9.82-1.74-13.65-4.94.17-.09.48-.26.67-.38l22.66-13.09c1.16-.66,1.87-1.89,1.86-3.23v-31.94l9.58,5.53c.1.05.17.15.18.26v26.45c-.01,11.76-9.54,21.3-21.3,21.33h0ZM60.17,128.35c-2.5-4.32-3.4-9.38-2.54-14.29.17.1.46.28.67.4l22.66,13.09c1.15.67,2.57.67,3.72,0l27.66-15.97v11.06c0,.11-.05.22-.14.3l-22.9,13.23c-10.2,5.87-23.23,2.38-29.13-7.81h0ZM54.2,78.89c2.49-4.32,6.42-7.63,11.1-9.35,0,.2-.01.54-.01.78v26.18c0,1.33.7,2.56,1.86,3.22l27.66,15.97-9.58,5.53c-.1.06-.22.07-.32.03l-22.91-13.24c-10.18-5.9-13.67-18.92-7.81-29.12h0ZM132.88,97.2l-27.66-15.97,9.58-5.53c.1-.06.22-.07.32-.03l22.91,13.23c10.2,5.89,13.69,18.94,7.8,29.14-2.49,4.32-6.42,7.62-11.09,9.35v-26.96c.01-1.33-.7-2.56-1.85-3.22h0ZM142.41,82.85c-.17-.1-.46-.28-.67-.4l-22.66-13.09c-1.15-.67-2.57-.67-3.72,0l-27.66,15.97v-11.06c0-.11.05-.22.14-.3l22.9-13.21c10.2-5.89,23.25-2.38,29.13,7.82,2.49,4.31,3.39,9.36,2.54,14.26h0ZM82.49,102.57l-9.58-5.53c-.1-.05-.17-.15-.18-.26v-26.45c0-11.78,9.56-21.32,21.34-21.32,4.98,0,9.8,1.75,13.63,4.94-.17.09-.47.26-.67.38l-22.66,13.09c-1.16.66-1.87,1.89-1.86,3.22v31.93s-.01,0-.01,0ZM87.69,91.35l12.32-7.12,12.32,7.11v14.23l-12.32,7.11-12.32-7.11v-14.22Z"></path>
</svg>
