<?xml version="1.0" encoding="UTF-8"?>
<svg xmlns="http://www.w3.org/2000/svg" id="Layer_1" data-name="Layer 1" width="500" height="200" viewBox="0 0 500 200">
  <defs>
    <style>
      .cls-1 {
        fill: #e4f222;
      }

      .cls-2 {
        fill: #3d3d3d;
      }
    </style>
  </defs>
  <rect class="cls-2" x="63.3" y="28.61" width="373.4" height="142.78"></rect>
  <path class="cls-1" d="M130.13,87.54c-6.5,0-9.68,5.78-9.68,13.5v19.35h-9.16v-40.82h9v10.59h.16c1.92-6.51,5.75-11.78,11.66-11.78,4.15,0,5.91,1.46,5.91,1.46l-4.13,8.41s-1.32-.71-3.75-.71ZM240.87,93.14v27.24h-8.92v-23.93c0-6.87-2.13-10.5-7.58-10.5s-8.37,4.6-8.37,13.42v21h-8.84v-23.93c0-6.6-2.11-10.5-7.5-10.5-6.16,0-8.53,5.45-8.53,13.42v21h-9v-40.82h9v9.24h.08c1.4-6.4,5.23-10.35,11.69-10.35s10.58,3.48,12.16,9.64c1.51-5.93,5.52-9.64,11.69-9.64,8.6,0,14.13,5.45,14.13,14.69ZM156.01,78.38c-8.28,0-13.7,3.93-16.17,11.02l7.62,2.8c1.39-4.28,4.29-6.71,8.71-6.71,4.97,0,7.9,2.21,7.9,5.61s-2.33,4.2-7.58,5.05c-5.84.95-19.74,1.26-19.74,13.11,0,6.94,5.74,12.16,14.37,12.16,6.49,0,10.91-2.68,12.95-7.66h.08v6.63h8.92v-25.11c0-10.99-5.48-16.9-17.06-16.9ZM164.31,101.17c0,8.56-4.2,14.06-10.9,14.06-4.74,0-7.58-2.69-7.58-6.56,0-3.63,2.92-6.15,8.53-7.19s8.62-2.38,9.95-5.53v5.22ZM272.61,78.46c-6.82,0-11.33,3.79-13.27,9.48v-8.38h-9.48v56.54h9.4v-24.09h.08c2.09,6.17,6.44,9.56,13.27,9.56,10.82,0,18.56-9,18.56-21.71s-7.74-21.4-18.56-21.4ZM270.28,113.99c-7.49,0-11.65-5.49-11.65-14.02s4.65-14.02,11.65-14.02,11.65,5.75,11.65,14.02-4.65,14.02-11.65,14.02ZM383.24,120.12v.25h-35.56s0-.25,0-.25c5.13-2.95,8.66-5.96,11.85-9.1h14.6l9.1,9.1ZM374.43,72.91l-9.01-9.01h-.26s.15,16.8-14.98,32.07-32.22,14.98-32.22,14.98v.26l9.18,9.17s17.16.17,32.32-14.98,14.98-32.49,14.98-32.49Z"></path>
</svg>
